<svg xmlns="http://www.w3.org/2000/svg" width="1350" height="947" style="cursor: move;"><g transform="translate(27.945248276055167,17.475298308868332) scale(0.9619274546647749)"><path class="link" marker-end="" d="M515,163.5, 695,283.5" style="stroke-width: 0.26px; stroke-opacity: 1; stroke: rgb(80, 80, 80);"></path><path class="link" marker-end="" d="M515,163.5, 695,323.5" style="stroke-width: 0.26px; stroke-opacity: 1; stroke: rgb(80, 80, 80);"></path><path class="link" marker-end="" d="M515,163.5, 695,363.5" style="stroke-width: 0.26px; stroke-opacity: 1; stroke: rgb(80, 80, 80);"></path><path class="link" marker-end="" d="M515,163.5, 695,403.5" style="stroke-width: 0.26px; stroke-opacity: 1; stroke: rgb(80, 80, 80);"></path><path class="link" marker-end="" d="M515,163.5, 695,443.5" style="stroke-width: 0.26px; stroke-opacity: 1; stroke: rgb(80, 80, 80);"></path><path class="link" marker-end="" d="M515,163.5, 695,483.5" style="stroke-width: 0.26px; stroke-opacity: 1; stroke: rgb(80, 80, 80);"></path><path class="link" marker-end="" d="M515,163.5, 695,523.5" style="stroke-width: 0.26px; stroke-opacity: 1; stroke: rgb(80, 80, 80);"></path><path class="link" marker-end="" d="M515,163.5, 695,563.5" style="stroke-width: 0.26px; stroke-opacity: 1; stroke: rgb(80, 80, 80);"></path><path class="link" marker-end="" d="M515,163.5, 695,603.5" style="stroke-width: 0.26px; stroke-opacity: 1; stroke: rgb(80, 80, 80);"></path><path class="link" marker-end="" d="M515,163.5, 695,643.5" style="stroke-width: 0.26px; stroke-opacity: 1; stroke: rgb(80, 80, 80);"></path><path class="link" marker-end="" d="M515,163.5, 695,683.5" style="stroke-width: 0.26px; stroke-opacity: 1; stroke: rgb(80, 80, 80);"></path><path class="link" marker-end="" d="M515,203.5, 695,283.5" style="stroke-width: 0.26px; stroke-opacity: 1; stroke: rgb(80, 80, 80);"></path><path class="link" marker-end="" d="M515,203.5, 695,323.5" style="stroke-width: 0.26px; stroke-opacity: 1; stroke: rgb(80, 80, 80);"></path><path class="link" marker-end="" d="M515,203.5, 695,363.5" style="stroke-width: 0.26px; stroke-opacity: 1; stroke: rgb(80, 80, 80);"></path><path class="link" marker-end="" d="M515,203.5, 695,403.5" style="stroke-width: 0.26px; stroke-opacity: 1; stroke: rgb(80, 80, 80);"></path><path class="link" marker-end="" d="M515,203.5, 695,443.5" style="stroke-width: 0.26px; stroke-opacity: 1; stroke: rgb(80, 80, 80);"></path><path class="link" marker-end="" d="M515,203.5, 695,483.5" style="stroke-width: 0.26px; stroke-opacity: 1; stroke: rgb(80, 80, 80);"></path><path class="link" marker-end="" d="M515,203.5, 695,523.5" style="stroke-width: 0.26px; stroke-opacity: 1; stroke: rgb(80, 80, 80);"></path><path class="link" marker-end="" d="M515,203.5, 695,563.5" style="stroke-width: 0.26px; stroke-opacity: 1; stroke: rgb(80, 80, 80);"></path><path class="link" marker-end="" d="M515,203.5, 695,603.5" style="stroke-width: 0.26px; stroke-opacity: 1; stroke: rgb(80, 80, 80);"></path><path class="link" marker-end="" d="M515,203.5, 695,643.5" style="stroke-width: 0.26px; stroke-opacity: 1; stroke: rgb(80, 80, 80);"></path><path class="link" marker-end="" d="M515,203.5, 695,683.5" style="stroke-width: 0.26px; stroke-opacity: 1; stroke: rgb(80, 80, 80);"></path><path class="link" marker-end="" d="M515,243.5, 695,283.5" style="stroke-width: 0.26px; stroke-opacity: 1; stroke: rgb(80, 80, 80);"></path><path class="link" marker-end="" d="M515,243.5, 695,323.5" style="stroke-width: 0.26px; stroke-opacity: 1; stroke: rgb(80, 80, 80);"></path><path class="link" marker-end="" d="M515,243.5, 695,363.5" style="stroke-width: 0.26px; stroke-opacity: 1; stroke: rgb(80, 80, 80);"></path><path class="link" marker-end="" d="M515,243.5, 695,403.5" style="stroke-width: 0.26px; stroke-opacity: 1; stroke: rgb(80, 80, 80);"></path><path class="link" marker-end="" d="M515,243.5, 695,443.5" style="stroke-width: 0.26px; stroke-opacity: 1; stroke: rgb(80, 80, 80);"></path><path class="link" marker-end="" d="M515,243.5, 695,483.5" style="stroke-width: 0.26px; stroke-opacity: 1; stroke: rgb(80, 80, 80);"></path><path class="link" marker-end="" d="M515,243.5, 695,523.5" style="stroke-width: 0.26px; stroke-opacity: 1; stroke: rgb(80, 80, 80);"></path><path class="link" marker-end="" d="M515,243.5, 695,563.5" style="stroke-width: 0.26px; stroke-opacity: 1; stroke: rgb(80, 80, 80);"></path><path class="link" marker-end="" d="M515,243.5, 695,603.5" style="stroke-width: 0.26px; stroke-opacity: 1; stroke: rgb(80, 80, 80);"></path><path class="link" marker-end="" d="M515,243.5, 695,643.5" style="stroke-width: 0.26px; stroke-opacity: 1; stroke: rgb(80, 80, 80);"></path><path class="link" marker-end="" d="M515,243.5, 695,683.5" style="stroke-width: 0.26px; stroke-opacity: 1; stroke: rgb(80, 80, 80);"></path><path class="link" marker-end="" d="M515,283.5, 695,283.5" style="stroke-width: 0.26px; stroke-opacity: 1; stroke: rgb(80, 80, 80);"></path><path class="link" marker-end="" d="M515,283.5, 695,323.5" style="stroke-width: 0.26px; stroke-opacity: 1; stroke: rgb(80, 80, 80);"></path><path class="link" marker-end="" d="M515,283.5, 695,363.5" style="stroke-width: 0.26px; stroke-opacity: 1; stroke: rgb(80, 80, 80);"></path><path class="link" marker-end="" d="M515,283.5, 695,403.5" style="stroke-width: 0.26px; stroke-opacity: 1; stroke: rgb(80, 80, 80);"></path><path class="link" marker-end="" d="M515,283.5, 695,443.5" style="stroke-width: 0.26px; stroke-opacity: 1; stroke: rgb(80, 80, 80);"></path><path class="link" marker-end="" d="M515,283.5, 695,483.5" style="stroke-width: 0.26px; stroke-opacity: 1; stroke: rgb(80, 80, 80);"></path><path class="link" marker-end="" d="M515,283.5, 695,523.5" style="stroke-width: 0.26px; stroke-opacity: 1; stroke: rgb(80, 80, 80);"></path><path class="link" marker-end="" d="M515,283.5, 695,563.5" style="stroke-width: 0.26px; stroke-opacity: 1; stroke: rgb(80, 80, 80);"></path><path class="link" marker-end="" d="M515,283.5, 695,603.5" style="stroke-width: 0.26px; stroke-opacity: 1; stroke: rgb(80, 80, 80);"></path><path class="link" marker-end="" d="M515,283.5, 695,643.5" style="stroke-width: 0.26px; stroke-opacity: 1; stroke: rgb(80, 80, 80);"></path><path class="link" marker-end="" d="M515,283.5, 695,683.5" style="stroke-width: 0.26px; stroke-opacity: 1; stroke: rgb(80, 80, 80);"></path><path class="link" marker-end="" d="M515,323.5, 695,283.5" style="stroke-width: 0.26px; stroke-opacity: 1; stroke: rgb(80, 80, 80);"></path><path class="link" marker-end="" d="M515,323.5, 695,323.5" style="stroke-width: 0.26px; stroke-opacity: 1; stroke: rgb(80, 80, 80);"></path><path class="link" marker-end="" d="M515,323.5, 695,363.5" style="stroke-width: 0.26px; stroke-opacity: 1; stroke: rgb(80, 80, 80);"></path><path class="link" marker-end="" d="M515,323.5, 695,403.5" style="stroke-width: 0.26px; stroke-opacity: 1; stroke: rgb(80, 80, 80);"></path><path class="link" marker-end="" d="M515,323.5, 695,443.5" style="stroke-width: 0.26px; stroke-opacity: 1; stroke: rgb(80, 80, 80);"></path><path class="link" marker-end="" d="M515,323.5, 695,483.5" style="stroke-width: 0.26px; stroke-opacity: 1; stroke: rgb(80, 80, 80);"></path><path class="link" marker-end="" d="M515,323.5, 695,523.5" style="stroke-width: 0.26px; stroke-opacity: 1; stroke: rgb(80, 80, 80);"></path><path class="link" marker-end="" d="M515,323.5, 695,563.5" style="stroke-width: 0.26px; stroke-opacity: 1; stroke: rgb(80, 80, 80);"></path><path class="link" marker-end="" d="M515,323.5, 695,603.5" style="stroke-width: 0.26px; stroke-opacity: 1; stroke: rgb(80, 80, 80);"></path><path class="link" marker-end="" d="M515,323.5, 695,643.5" style="stroke-width: 0.26px; stroke-opacity: 1; stroke: rgb(80, 80, 80);"></path><path class="link" marker-end="" d="M515,323.5, 695,683.5" style="stroke-width: 0.26px; stroke-opacity: 1; stroke: rgb(80, 80, 80);"></path><path class="link" marker-end="" d="M515,363.5, 695,283.5" style="stroke-width: 0.26px; stroke-opacity: 1; stroke: rgb(80, 80, 80);"></path><path class="link" marker-end="" d="M515,363.5, 695,323.5" style="stroke-width: 0.26px; stroke-opacity: 1; stroke: rgb(80, 80, 80);"></path><path class="link" marker-end="" d="M515,363.5, 695,363.5" style="stroke-width: 0.26px; stroke-opacity: 1; stroke: rgb(80, 80, 80);"></path><path class="link" marker-end="" d="M515,363.5, 695,403.5" style="stroke-width: 0.26px; stroke-opacity: 1; stroke: rgb(80, 80, 80);"></path><path class="link" marker-end="" d="M515,363.5, 695,443.5" style="stroke-width: 0.26px; stroke-opacity: 1; stroke: rgb(80, 80, 80);"></path><path class="link" marker-end="" d="M515,363.5, 695,483.5" style="stroke-width: 0.26px; stroke-opacity: 1; stroke: rgb(80, 80, 80);"></path><path class="link" marker-end="" d="M515,363.5, 695,523.5" style="stroke-width: 0.26px; stroke-opacity: 1; stroke: rgb(80, 80, 80);"></path><path class="link" marker-end="" d="M515,363.5, 695,563.5" style="stroke-width: 0.26px; stroke-opacity: 1; stroke: rgb(80, 80, 80);"></path><path class="link" marker-end="" d="M515,363.5, 695,603.5" style="stroke-width: 0.26px; stroke-opacity: 1; stroke: rgb(80, 80, 80);"></path><path class="link" marker-end="" d="M515,363.5, 695,643.5" style="stroke-width: 0.26px; stroke-opacity: 1; stroke: rgb(80, 80, 80);"></path><path class="link" marker-end="" d="M515,363.5, 695,683.5" style="stroke-width: 0.26px; stroke-opacity: 1; stroke: rgb(80, 80, 80);"></path><path class="link" marker-end="" d="M515,403.5, 695,283.5" style="stroke-width: 0.26px; stroke-opacity: 1; stroke: rgb(80, 80, 80);"></path><path class="link" marker-end="" d="M515,403.5, 695,323.5" style="stroke-width: 0.26px; stroke-opacity: 1; stroke: rgb(80, 80, 80);"></path><path class="link" marker-end="" d="M515,403.5, 695,363.5" style="stroke-width: 0.26px; stroke-opacity: 1; stroke: rgb(80, 80, 80);"></path><path class="link" marker-end="" d="M515,403.5, 695,403.5" style="stroke-width: 0.26px; stroke-opacity: 1; stroke: rgb(80, 80, 80);"></path><path class="link" marker-end="" d="M515,403.5, 695,443.5" style="stroke-width: 0.26px; stroke-opacity: 1; stroke: rgb(80, 80, 80);"></path><path class="link" marker-end="" d="M515,403.5, 695,483.5" style="stroke-width: 0.26px; stroke-opacity: 1; stroke: rgb(80, 80, 80);"></path><path class="link" marker-end="" d="M515,403.5, 695,523.5" style="stroke-width: 0.26px; stroke-opacity: 1; stroke: rgb(80, 80, 80);"></path><path class="link" marker-end="" d="M515,403.5, 695,563.5" style="stroke-width: 0.26px; stroke-opacity: 1; stroke: rgb(80, 80, 80);"></path><path class="link" marker-end="" d="M515,403.5, 695,603.5" style="stroke-width: 0.26px; stroke-opacity: 1; stroke: rgb(80, 80, 80);"></path><path class="link" marker-end="" d="M515,403.5, 695,643.5" style="stroke-width: 0.26px; stroke-opacity: 1; stroke: rgb(80, 80, 80);"></path><path class="link" marker-end="" d="M515,403.5, 695,683.5" style="stroke-width: 0.26px; stroke-opacity: 1; stroke: rgb(80, 80, 80);"></path><path class="link" marker-end="" d="M515,443.5, 695,283.5" style="stroke-width: 0.26px; stroke-opacity: 1; stroke: rgb(80, 80, 80);"></path><path class="link" marker-end="" d="M515,443.5, 695,323.5" style="stroke-width: 0.26px; stroke-opacity: 1; stroke: rgb(80, 80, 80);"></path><path class="link" marker-end="" d="M515,443.5, 695,363.5" style="stroke-width: 0.26px; stroke-opacity: 1; stroke: rgb(80, 80, 80);"></path><path class="link" marker-end="" d="M515,443.5, 695,403.5" style="stroke-width: 0.26px; stroke-opacity: 1; stroke: rgb(80, 80, 80);"></path><path class="link" marker-end="" d="M515,443.5, 695,443.5" style="stroke-width: 0.26px; stroke-opacity: 1; stroke: rgb(80, 80, 80);"></path><path class="link" marker-end="" d="M515,443.5, 695,483.5" style="stroke-width: 0.26px; stroke-opacity: 1; stroke: rgb(80, 80, 80);"></path><path class="link" marker-end="" d="M515,443.5, 695,523.5" style="stroke-width: 0.26px; stroke-opacity: 1; stroke: rgb(80, 80, 80);"></path><path class="link" marker-end="" d="M515,443.5, 695,563.5" style="stroke-width: 0.26px; stroke-opacity: 1; stroke: rgb(80, 80, 80);"></path><path class="link" marker-end="" d="M515,443.5, 695,603.5" style="stroke-width: 0.26px; stroke-opacity: 1; stroke: rgb(80, 80, 80);"></path><path class="link" marker-end="" d="M515,443.5, 695,643.5" style="stroke-width: 0.26px; stroke-opacity: 1; stroke: rgb(80, 80, 80);"></path><path class="link" marker-end="" d="M515,443.5, 695,683.5" style="stroke-width: 0.26px; stroke-opacity: 1; stroke: rgb(80, 80, 80);"></path><path class="link" marker-end="" d="M515,483.5, 695,283.5" style="stroke-width: 0.26px; stroke-opacity: 1; stroke: rgb(80, 80, 80);"></path><path class="link" marker-end="" d="M515,483.5, 695,323.5" style="stroke-width: 0.26px; stroke-opacity: 1; stroke: rgb(80, 80, 80);"></path><path class="link" marker-end="" d="M515,483.5, 695,363.5" style="stroke-width: 0.26px; stroke-opacity: 1; stroke: rgb(80, 80, 80);"></path><path class="link" marker-end="" d="M515,483.5, 695,403.5" style="stroke-width: 0.26px; stroke-opacity: 1; stroke: rgb(80, 80, 80);"></path><path class="link" marker-end="" d="M515,483.5, 695,443.5" style="stroke-width: 0.26px; stroke-opacity: 1; stroke: rgb(80, 80, 80);"></path><path class="link" marker-end="" d="M515,483.5, 695,483.5" style="stroke-width: 0.26px; stroke-opacity: 1; stroke: rgb(80, 80, 80);"></path><path class="link" marker-end="" d="M515,483.5, 695,523.5" style="stroke-width: 0.26px; stroke-opacity: 1; stroke: rgb(80, 80, 80);"></path><path class="link" marker-end="" d="M515,483.5, 695,563.5" style="stroke-width: 0.26px; stroke-opacity: 1; stroke: rgb(80, 80, 80);"></path><path class="link" marker-end="" d="M515,483.5, 695,603.5" style="stroke-width: 0.26px; stroke-opacity: 1; stroke: rgb(80, 80, 80);"></path><path class="link" marker-end="" d="M515,483.5, 695,643.5" style="stroke-width: 0.26px; stroke-opacity: 1; stroke: rgb(80, 80, 80);"></path><path class="link" marker-end="" d="M515,483.5, 695,683.5" style="stroke-width: 0.26px; stroke-opacity: 1; stroke: rgb(80, 80, 80);"></path><path class="link" marker-end="" d="M515,523.5, 695,283.5" style="stroke-width: 0.26px; stroke-opacity: 1; stroke: rgb(80, 80, 80);"></path><path class="link" marker-end="" d="M515,523.5, 695,323.5" style="stroke-width: 0.26px; stroke-opacity: 1; stroke: rgb(80, 80, 80);"></path><path class="link" marker-end="" d="M515,523.5, 695,363.5" style="stroke-width: 0.26px; stroke-opacity: 1; stroke: rgb(80, 80, 80);"></path><path class="link" marker-end="" d="M515,523.5, 695,403.5" style="stroke-width: 0.26px; stroke-opacity: 1; stroke: rgb(80, 80, 80);"></path><path class="link" marker-end="" d="M515,523.5, 695,443.5" style="stroke-width: 0.26px; stroke-opacity: 1; stroke: rgb(80, 80, 80);"></path><path class="link" marker-end="" d="M515,523.5, 695,483.5" style="stroke-width: 0.26px; stroke-opacity: 1; stroke: rgb(80, 80, 80);"></path><path class="link" marker-end="" d="M515,523.5, 695,523.5" style="stroke-width: 0.26px; stroke-opacity: 1; stroke: rgb(80, 80, 80);"></path><path class="link" marker-end="" d="M515,523.5, 695,563.5" style="stroke-width: 0.26px; stroke-opacity: 1; stroke: rgb(80, 80, 80);"></path><path class="link" marker-end="" d="M515,523.5, 695,603.5" style="stroke-width: 0.26px; stroke-opacity: 1; stroke: rgb(80, 80, 80);"></path><path class="link" marker-end="" d="M515,523.5, 695,643.5" style="stroke-width: 0.26px; stroke-opacity: 1; stroke: rgb(80, 80, 80);"></path><path class="link" marker-end="" d="M515,523.5, 695,683.5" style="stroke-width: 0.26px; stroke-opacity: 1; stroke: rgb(80, 80, 80);"></path><path class="link" marker-end="" d="M515,563.5, 695,283.5" style="stroke-width: 0.26px; stroke-opacity: 1; stroke: rgb(80, 80, 80);"></path><path class="link" marker-end="" d="M515,563.5, 695,323.5" style="stroke-width: 0.26px; stroke-opacity: 1; stroke: rgb(80, 80, 80);"></path><path class="link" marker-end="" d="M515,563.5, 695,363.5" style="stroke-width: 0.26px; stroke-opacity: 1; stroke: rgb(80, 80, 80);"></path><path class="link" marker-end="" d="M515,563.5, 695,403.5" style="stroke-width: 0.26px; stroke-opacity: 1; stroke: rgb(80, 80, 80);"></path><path class="link" marker-end="" d="M515,563.5, 695,443.5" style="stroke-width: 0.26px; stroke-opacity: 1; stroke: rgb(80, 80, 80);"></path><path class="link" marker-end="" d="M515,563.5, 695,483.5" style="stroke-width: 0.26px; stroke-opacity: 1; stroke: rgb(80, 80, 80);"></path><path class="link" marker-end="" d="M515,563.5, 695,523.5" style="stroke-width: 0.26px; stroke-opacity: 1; stroke: rgb(80, 80, 80);"></path><path class="link" marker-end="" d="M515,563.5, 695,563.5" style="stroke-width: 0.26px; stroke-opacity: 1; stroke: rgb(80, 80, 80);"></path><path class="link" marker-end="" d="M515,563.5, 695,603.5" style="stroke-width: 0.26px; stroke-opacity: 1; stroke: rgb(80, 80, 80);"></path><path class="link" marker-end="" d="M515,563.5, 695,643.5" style="stroke-width: 0.26px; stroke-opacity: 1; stroke: rgb(80, 80, 80);"></path><path class="link" marker-end="" d="M515,563.5, 695,683.5" style="stroke-width: 0.26px; stroke-opacity: 1; stroke: rgb(80, 80, 80);"></path><path class="link" marker-end="" d="M515,603.5, 695,283.5" style="stroke-width: 0.26px; stroke-opacity: 1; stroke: rgb(80, 80, 80);"></path><path class="link" marker-end="" d="M515,603.5, 695,323.5" style="stroke-width: 0.26px; stroke-opacity: 1; stroke: rgb(80, 80, 80);"></path><path class="link" marker-end="" d="M515,603.5, 695,363.5" style="stroke-width: 0.26px; stroke-opacity: 1; stroke: rgb(80, 80, 80);"></path><path class="link" marker-end="" d="M515,603.5, 695,403.5" style="stroke-width: 0.26px; stroke-opacity: 1; stroke: rgb(80, 80, 80);"></path><path class="link" marker-end="" d="M515,603.5, 695,443.5" style="stroke-width: 0.26px; stroke-opacity: 1; stroke: rgb(80, 80, 80);"></path><path class="link" marker-end="" d="M515,603.5, 695,483.5" style="stroke-width: 0.26px; stroke-opacity: 1; stroke: rgb(80, 80, 80);"></path><path class="link" marker-end="" d="M515,603.5, 695,523.5" style="stroke-width: 0.26px; stroke-opacity: 1; stroke: rgb(80, 80, 80);"></path><path class="link" marker-end="" d="M515,603.5, 695,563.5" style="stroke-width: 0.26px; stroke-opacity: 1; stroke: rgb(80, 80, 80);"></path><path class="link" marker-end="" d="M515,603.5, 695,603.5" style="stroke-width: 0.26px; stroke-opacity: 1; stroke: rgb(80, 80, 80);"></path><path class="link" marker-end="" d="M515,603.5, 695,643.5" style="stroke-width: 0.26px; stroke-opacity: 1; stroke: rgb(80, 80, 80);"></path><path class="link" marker-end="" d="M515,603.5, 695,683.5" style="stroke-width: 0.26px; stroke-opacity: 1; stroke: rgb(80, 80, 80);"></path><path class="link" marker-end="" d="M515,643.5, 695,283.5" style="stroke-width: 0.26px; stroke-opacity: 1; stroke: rgb(80, 80, 80);"></path><path class="link" marker-end="" d="M515,643.5, 695,323.5" style="stroke-width: 0.26px; stroke-opacity: 1; stroke: rgb(80, 80, 80);"></path><path class="link" marker-end="" d="M515,643.5, 695,363.5" style="stroke-width: 0.26px; stroke-opacity: 1; stroke: rgb(80, 80, 80);"></path><path class="link" marker-end="" d="M515,643.5, 695,403.5" style="stroke-width: 0.26px; stroke-opacity: 1; stroke: rgb(80, 80, 80);"></path><path class="link" marker-end="" d="M515,643.5, 695,443.5" style="stroke-width: 0.26px; stroke-opacity: 1; stroke: rgb(80, 80, 80);"></path><path class="link" marker-end="" d="M515,643.5, 695,483.5" style="stroke-width: 0.26px; stroke-opacity: 1; stroke: rgb(80, 80, 80);"></path><path class="link" marker-end="" d="M515,643.5, 695,523.5" style="stroke-width: 0.26px; stroke-opacity: 1; stroke: rgb(80, 80, 80);"></path><path class="link" marker-end="" d="M515,643.5, 695,563.5" style="stroke-width: 0.26px; stroke-opacity: 1; stroke: rgb(80, 80, 80);"></path><path class="link" marker-end="" d="M515,643.5, 695,603.5" style="stroke-width: 0.26px; stroke-opacity: 1; stroke: rgb(80, 80, 80);"></path><path class="link" marker-end="" d="M515,643.5, 695,643.5" style="stroke-width: 0.26px; stroke-opacity: 1; stroke: rgb(80, 80, 80);"></path><path class="link" marker-end="" d="M515,643.5, 695,683.5" style="stroke-width: 0.26px; stroke-opacity: 1; stroke: rgb(80, 80, 80);"></path><path class="link" marker-end="" d="M515,683.5, 695,283.5" style="stroke-width: 0.26px; stroke-opacity: 1; stroke: rgb(80, 80, 80);"></path><path class="link" marker-end="" d="M515,683.5, 695,323.5" style="stroke-width: 0.26px; stroke-opacity: 1; stroke: rgb(80, 80, 80);"></path><path class="link" marker-end="" d="M515,683.5, 695,363.5" style="stroke-width: 0.26px; stroke-opacity: 1; stroke: rgb(80, 80, 80);"></path><path class="link" marker-end="" d="M515,683.5, 695,403.5" style="stroke-width: 0.26px; stroke-opacity: 1; stroke: rgb(80, 80, 80);"></path><path class="link" marker-end="" d="M515,683.5, 695,443.5" style="stroke-width: 0.26px; stroke-opacity: 1; stroke: rgb(80, 80, 80);"></path><path class="link" marker-end="" d="M515,683.5, 695,483.5" style="stroke-width: 0.26px; stroke-opacity: 1; stroke: rgb(80, 80, 80);"></path><path class="link" marker-end="" d="M515,683.5, 695,523.5" style="stroke-width: 0.26px; stroke-opacity: 1; stroke: rgb(80, 80, 80);"></path><path class="link" marker-end="" d="M515,683.5, 695,563.5" style="stroke-width: 0.26px; stroke-opacity: 1; stroke: rgb(80, 80, 80);"></path><path class="link" marker-end="" d="M515,683.5, 695,603.5" style="stroke-width: 0.26px; stroke-opacity: 1; stroke: rgb(80, 80, 80);"></path><path class="link" marker-end="" d="M515,683.5, 695,643.5" style="stroke-width: 0.26px; stroke-opacity: 1; stroke: rgb(80, 80, 80);"></path><path class="link" marker-end="" d="M515,683.5, 695,683.5" style="stroke-width: 0.26px; stroke-opacity: 1; stroke: rgb(80, 80, 80);"></path><path class="link" marker-end="" d="M515,723.5, 695,283.5" style="stroke-width: 0.26px; stroke-opacity: 1; stroke: rgb(80, 80, 80);"></path><path class="link" marker-end="" d="M515,723.5, 695,323.5" style="stroke-width: 0.26px; stroke-opacity: 1; stroke: rgb(80, 80, 80);"></path><path class="link" marker-end="" d="M515,723.5, 695,363.5" style="stroke-width: 0.26px; stroke-opacity: 1; stroke: rgb(80, 80, 80);"></path><path class="link" marker-end="" d="M515,723.5, 695,403.5" style="stroke-width: 0.26px; stroke-opacity: 1; stroke: rgb(80, 80, 80);"></path><path class="link" marker-end="" d="M515,723.5, 695,443.5" style="stroke-width: 0.26px; stroke-opacity: 1; stroke: rgb(80, 80, 80);"></path><path class="link" marker-end="" d="M515,723.5, 695,483.5" style="stroke-width: 0.26px; stroke-opacity: 1; stroke: rgb(80, 80, 80);"></path><path class="link" marker-end="" d="M515,723.5, 695,523.5" style="stroke-width: 0.26px; stroke-opacity: 1; stroke: rgb(80, 80, 80);"></path><path class="link" marker-end="" d="M515,723.5, 695,563.5" style="stroke-width: 0.26px; stroke-opacity: 1; stroke: rgb(80, 80, 80);"></path><path class="link" marker-end="" d="M515,723.5, 695,603.5" style="stroke-width: 0.26px; stroke-opacity: 1; stroke: rgb(80, 80, 80);"></path><path class="link" marker-end="" d="M515,723.5, 695,643.5" style="stroke-width: 0.26px; stroke-opacity: 1; stroke: rgb(80, 80, 80);"></path><path class="link" marker-end="" d="M515,723.5, 695,683.5" style="stroke-width: 0.26px; stroke-opacity: 1; stroke: rgb(80, 80, 80);"></path><path class="link" marker-end="" d="M515,763.5, 695,283.5" style="stroke-width: 0.26px; stroke-opacity: 1; stroke: rgb(80, 80, 80);"></path><path class="link" marker-end="" d="M515,763.5, 695,323.5" style="stroke-width: 0.26px; stroke-opacity: 1; stroke: rgb(80, 80, 80);"></path><path class="link" marker-end="" d="M515,763.5, 695,363.5" style="stroke-width: 0.26px; stroke-opacity: 1; stroke: rgb(80, 80, 80);"></path><path class="link" marker-end="" d="M515,763.5, 695,403.5" style="stroke-width: 0.26px; stroke-opacity: 1; stroke: rgb(80, 80, 80);"></path><path class="link" marker-end="" d="M515,763.5, 695,443.5" style="stroke-width: 0.26px; stroke-opacity: 1; stroke: rgb(80, 80, 80);"></path><path class="link" marker-end="" d="M515,763.5, 695,483.5" style="stroke-width: 0.26px; stroke-opacity: 1; stroke: rgb(80, 80, 80);"></path><path class="link" marker-end="" d="M515,763.5, 695,523.5" style="stroke-width: 0.26px; stroke-opacity: 1; stroke: rgb(80, 80, 80);"></path><path class="link" marker-end="" d="M515,763.5, 695,563.5" style="stroke-width: 0.26px; stroke-opacity: 1; stroke: rgb(80, 80, 80);"></path><path class="link" marker-end="" d="M515,763.5, 695,603.5" style="stroke-width: 0.26px; stroke-opacity: 1; stroke: rgb(80, 80, 80);"></path><path class="link" marker-end="" d="M515,763.5, 695,643.5" style="stroke-width: 0.26px; stroke-opacity: 1; stroke: rgb(80, 80, 80);"></path><path class="link" marker-end="" d="M515,763.5, 695,683.5" style="stroke-width: 0.26px; stroke-opacity: 1; stroke: rgb(80, 80, 80);"></path><path class="link" marker-end="" d="M695,243.5, 875,403.5" style="stroke-width: 0.26px; stroke-opacity: 1; stroke: rgb(80, 80, 80);"></path><path class="link" marker-end="" d="M695,283.5, 875,403.5" style="stroke-width: 0.26px; stroke-opacity: 1; stroke: rgb(80, 80, 80);"></path><path class="link" marker-end="" d="M695,323.5, 875,403.5" style="stroke-width: 0.26px; stroke-opacity: 1; stroke: rgb(80, 80, 80);"></path><path class="link" marker-end="" d="M695,363.5, 875,403.5" style="stroke-width: 0.26px; stroke-opacity: 1; stroke: rgb(80, 80, 80);"></path><path class="link" marker-end="" d="M695,403.5, 875,403.5" style="stroke-width: 0.26px; stroke-opacity: 1; stroke: rgb(80, 80, 80);"></path><path class="link" marker-end="" d="M695,443.5, 875,403.5" style="stroke-width: 0.26px; stroke-opacity: 1; stroke: rgb(80, 80, 80);"></path><path class="link" marker-end="" d="M695,483.5, 875,403.5" style="stroke-width: 0.26px; stroke-opacity: 1; stroke: rgb(80, 80, 80);"></path><path class="link" marker-end="" d="M695,523.5, 875,403.5" style="stroke-width: 0.26px; stroke-opacity: 1; stroke: rgb(80, 80, 80);"></path><path class="link" marker-end="" d="M695,563.5, 875,403.5" style="stroke-width: 0.26px; stroke-opacity: 1; stroke: rgb(80, 80, 80);"></path><path class="link" marker-end="" d="M695,603.5, 875,403.5" style="stroke-width: 0.26px; stroke-opacity: 1; stroke: rgb(80, 80, 80);"></path><path class="link" marker-end="" d="M695,643.5, 875,403.5" style="stroke-width: 0.26px; stroke-opacity: 1; stroke: rgb(80, 80, 80);"></path><path class="link" marker-end="" d="M695,683.5, 875,403.5" style="stroke-width: 0.26px; stroke-opacity: 1; stroke: rgb(80, 80, 80);"></path><path class="link" marker-end="" d="M695,243.5, 875,443.5" style="stroke-width: 0.26px; stroke-opacity: 1; stroke: rgb(80, 80, 80);"></path><path class="link" marker-end="" d="M695,283.5, 875,443.5" style="stroke-width: 0.26px; stroke-opacity: 1; stroke: rgb(80, 80, 80);"></path><path class="link" marker-end="" d="M695,323.5, 875,443.5" style="stroke-width: 0.26px; stroke-opacity: 1; stroke: rgb(80, 80, 80);"></path><path class="link" marker-end="" d="M695,363.5, 875,443.5" style="stroke-width: 0.26px; stroke-opacity: 1; stroke: rgb(80, 80, 80);"></path><path class="link" marker-end="" d="M695,403.5, 875,443.5" style="stroke-width: 0.26px; stroke-opacity: 1; stroke: rgb(80, 80, 80);"></path><path class="link" marker-end="" d="M695,443.5, 875,443.5" style="stroke-width: 0.26px; stroke-opacity: 1; stroke: rgb(80, 80, 80);"></path><path class="link" marker-end="" d="M695,483.5, 875,443.5" style="stroke-width: 0.26px; stroke-opacity: 1; stroke: rgb(80, 80, 80);"></path><path class="link" marker-end="" d="M695,523.5, 875,443.5" style="stroke-width: 0.26px; stroke-opacity: 1; stroke: rgb(80, 80, 80);"></path><path class="link" marker-end="" d="M695,563.5, 875,443.5" style="stroke-width: 0.26px; stroke-opacity: 1; stroke: rgb(80, 80, 80);"></path><path class="link" marker-end="" d="M695,603.5, 875,443.5" style="stroke-width: 0.26px; stroke-opacity: 1; stroke: rgb(80, 80, 80);"></path><path class="link" marker-end="" d="M695,643.5, 875,443.5" style="stroke-width: 0.26px; stroke-opacity: 1; stroke: rgb(80, 80, 80);"></path><path class="link" marker-end="" d="M695,683.5, 875,443.5" style="stroke-width: 0.26px; stroke-opacity: 1; stroke: rgb(80, 80, 80);"></path><path class="link" marker-end="" d="M695,243.5, 875,483.5" style="stroke-width: 0.26px; stroke-opacity: 1; stroke: rgb(80, 80, 80);"></path><path class="link" marker-end="" d="M695,283.5, 875,483.5" style="stroke-width: 0.26px; stroke-opacity: 1; stroke: rgb(80, 80, 80);"></path><path class="link" marker-end="" d="M695,323.5, 875,483.5" style="stroke-width: 0.26px; stroke-opacity: 1; stroke: rgb(80, 80, 80);"></path><path class="link" marker-end="" d="M695,363.5, 875,483.5" style="stroke-width: 0.26px; stroke-opacity: 1; stroke: rgb(80, 80, 80);"></path><path class="link" marker-end="" d="M695,403.5, 875,483.5" style="stroke-width: 0.26px; stroke-opacity: 1; stroke: rgb(80, 80, 80);"></path><path class="link" marker-end="" d="M695,443.5, 875,483.5" style="stroke-width: 0.26px; stroke-opacity: 1; stroke: rgb(80, 80, 80);"></path><path class="link" marker-end="" d="M695,483.5, 875,483.5" style="stroke-width: 0.26px; stroke-opacity: 1; stroke: rgb(80, 80, 80);"></path><path class="link" marker-end="" d="M695,523.5, 875,483.5" style="stroke-width: 0.26px; stroke-opacity: 1; stroke: rgb(80, 80, 80);"></path><path class="link" marker-end="" d="M695,563.5, 875,483.5" style="stroke-width: 0.26px; stroke-opacity: 1; stroke: rgb(80, 80, 80);"></path><path class="link" marker-end="" d="M695,603.5, 875,483.5" style="stroke-width: 0.26px; stroke-opacity: 1; stroke: rgb(80, 80, 80);"></path><path class="link" marker-end="" d="M695,643.5, 875,483.5" style="stroke-width: 0.26px; stroke-opacity: 1; stroke: rgb(80, 80, 80);"></path><path class="link" marker-end="" d="M695,683.5, 875,483.5" style="stroke-width: 0.26px; stroke-opacity: 1; stroke: rgb(80, 80, 80);"></path><path class="link" marker-end="" d="M695,243.5, 875,523.5" style="stroke-width: 0.26px; stroke-opacity: 1; stroke: rgb(80, 80, 80);"></path><path class="link" marker-end="" d="M695,283.5, 875,523.5" style="stroke-width: 0.26px; stroke-opacity: 1; stroke: rgb(80, 80, 80);"></path><path class="link" marker-end="" d="M695,323.5, 875,523.5" style="stroke-width: 0.26px; stroke-opacity: 1; stroke: rgb(80, 80, 80);"></path><path class="link" marker-end="" d="M695,363.5, 875,523.5" style="stroke-width: 0.26px; stroke-opacity: 1; stroke: rgb(80, 80, 80);"></path><path class="link" marker-end="" d="M695,403.5, 875,523.5" style="stroke-width: 0.26px; stroke-opacity: 1; stroke: rgb(80, 80, 80);"></path><path class="link" marker-end="" d="M695,443.5, 875,523.5" style="stroke-width: 0.26px; stroke-opacity: 1; stroke: rgb(80, 80, 80);"></path><path class="link" marker-end="" d="M695,483.5, 875,523.5" style="stroke-width: 0.26px; stroke-opacity: 1; stroke: rgb(80, 80, 80);"></path><path class="link" marker-end="" d="M695,523.5, 875,523.5" style="stroke-width: 0.26px; stroke-opacity: 1; stroke: rgb(80, 80, 80);"></path><path class="link" marker-end="" d="M695,563.5, 875,523.5" style="stroke-width: 0.26px; stroke-opacity: 1; stroke: rgb(80, 80, 80);"></path><path class="link" marker-end="" d="M695,603.5, 875,523.5" style="stroke-width: 0.26px; stroke-opacity: 1; stroke: rgb(80, 80, 80);"></path><path class="link" marker-end="" d="M695,643.5, 875,523.5" style="stroke-width: 0.26px; stroke-opacity: 1; stroke: rgb(80, 80, 80);"></path><path class="link" marker-end="" d="M695,683.5, 875,523.5" style="stroke-width: 0.26px; stroke-opacity: 1; stroke: rgb(80, 80, 80);"></path><path class="link" marker-end="" d="M515,163.5, 695,243.5" style="stroke-width: 0.26px; stroke-opacity: 1; stroke: rgb(80, 80, 80);"></path><path class="link" marker-end="" d="M515,203.5, 695,243.5" style="stroke-width: 0.26px; stroke-opacity: 1; stroke: rgb(80, 80, 80);"></path><path class="link" marker-end="" d="M515,243.5, 695,243.5" style="stroke-width: 0.26px; stroke-opacity: 1; stroke: rgb(80, 80, 80);"></path><path class="link" marker-end="" d="M515,283.5, 695,243.5" style="stroke-width: 0.26px; stroke-opacity: 1; stroke: rgb(80, 80, 80);"></path><path class="link" marker-end="" d="M515,323.5, 695,243.5" style="stroke-width: 0.26px; stroke-opacity: 1; stroke: rgb(80, 80, 80);"></path><path class="link" marker-end="" d="M515,363.5, 695,243.5" style="stroke-width: 0.26px; stroke-opacity: 1; stroke: rgb(80, 80, 80);"></path><path class="link" marker-end="" d="M515,403.5, 695,243.5" style="stroke-width: 0.26px; stroke-opacity: 1; stroke: rgb(80, 80, 80);"></path><path class="link" marker-end="" d="M515,443.5, 695,243.5" style="stroke-width: 0.26px; stroke-opacity: 1; stroke: rgb(80, 80, 80);"></path><path class="link" marker-end="" d="M515,483.5, 695,243.5" style="stroke-width: 0.26px; stroke-opacity: 1; stroke: rgb(80, 80, 80);"></path><path class="link" marker-end="" d="M515,523.5, 695,243.5" style="stroke-width: 0.26px; stroke-opacity: 1; stroke: rgb(80, 80, 80);"></path><path class="link" marker-end="" d="M515,563.5, 695,243.5" style="stroke-width: 0.26px; stroke-opacity: 1; stroke: rgb(80, 80, 80);"></path><path class="link" marker-end="" d="M515,603.5, 695,243.5" style="stroke-width: 0.26px; stroke-opacity: 1; stroke: rgb(80, 80, 80);"></path><path class="link" marker-end="" d="M515,643.5, 695,243.5" style="stroke-width: 0.26px; stroke-opacity: 1; stroke: rgb(80, 80, 80);"></path><path class="link" marker-end="" d="M515,683.5, 695,243.5" style="stroke-width: 0.26px; stroke-opacity: 1; stroke: rgb(80, 80, 80);"></path><path class="link" marker-end="" d="M515,723.5, 695,243.5" style="stroke-width: 0.26px; stroke-opacity: 1; stroke: rgb(80, 80, 80);"></path><path class="link" marker-end="" d="M515,763.5, 695,243.5" style="stroke-width: 0.26px; stroke-opacity: 1; stroke: rgb(80, 80, 80);"></path><circle r="10" class="node" id="0_0" cx="515" cy="163.5" style="fill: rgb(255, 255, 255); stroke: rgb(51, 51, 51);"></circle><circle r="10" class="node" id="0_1" cx="515" cy="203.5" style="fill: rgb(255, 255, 255); stroke: rgb(51, 51, 51);"></circle><circle r="10" class="node" id="0_2" cx="515" cy="243.5" style="fill: rgb(255, 255, 255); stroke: rgb(51, 51, 51);"></circle><circle r="10" class="node" id="0_3" cx="515" cy="283.5" style="fill: rgb(255, 255, 255); stroke: rgb(51, 51, 51);"></circle><circle r="10" class="node" id="0_4" cx="515" cy="323.5" style="fill: rgb(255, 255, 255); stroke: rgb(51, 51, 51);"></circle><circle r="10" class="node" id="0_5" cx="515" cy="363.5" style="fill: rgb(255, 255, 255); stroke: rgb(51, 51, 51);"></circle><circle r="10" class="node" id="0_6" cx="515" cy="403.5" style="fill: rgb(255, 255, 255); stroke: rgb(51, 51, 51);"></circle><circle r="10" class="node" id="0_7" cx="515" cy="443.5" style="fill: rgb(255, 255, 255); stroke: rgb(51, 51, 51);"></circle><circle r="10" class="node" id="0_8" cx="515" cy="483.5" style="fill: rgb(255, 255, 255); stroke: rgb(51, 51, 51);"></circle><circle r="10" class="node" id="0_9" cx="515" cy="523.5" style="fill: rgb(255, 255, 255); stroke: rgb(51, 51, 51);"></circle><circle r="10" class="node" id="0_10" cx="515" cy="563.5" style="fill: rgb(255, 255, 255); stroke: rgb(51, 51, 51);"></circle><circle r="10" class="node" id="0_11" cx="515" cy="603.5" style="fill: rgb(255, 255, 255); stroke: rgb(51, 51, 51);"></circle><circle r="10" class="node" id="0_12" cx="515" cy="643.5" style="fill: rgb(255, 255, 255); stroke: rgb(51, 51, 51);"></circle><circle r="10" class="node" id="0_13" cx="515" cy="683.5" style="fill: rgb(255, 255, 255); stroke: rgb(51, 51, 51);"></circle><circle r="10" class="node" id="0_14" cx="515" cy="723.5" style="fill: rgb(255, 255, 255); stroke: rgb(51, 51, 51);"></circle><circle r="10" class="node" id="0_15" cx="515" cy="763.5" style="fill: rgb(255, 255, 255); stroke: rgb(51, 51, 51);"></circle><circle r="10" class="node" id="1_0" cx="695" cy="243.5" style="fill: rgb(255, 255, 255); stroke: rgb(51, 51, 51);"></circle><circle r="10" class="node" id="1_1" cx="695" cy="283.5" style="fill: rgb(255, 255, 255); stroke: rgb(51, 51, 51);"></circle><circle r="10" class="node" id="1_2" cx="695" cy="323.5" style="fill: rgb(255, 255, 255); stroke: rgb(51, 51, 51);"></circle><circle r="10" class="node" id="1_3" cx="695" cy="363.5" style="fill: rgb(255, 255, 255); stroke: rgb(51, 51, 51);"></circle><circle r="10" class="node" id="1_4" cx="695" cy="403.5" style="fill: rgb(255, 255, 255); stroke: rgb(51, 51, 51);"></circle><circle r="10" class="node" id="1_5" cx="695" cy="443.5" style="fill: rgb(255, 255, 255); stroke: rgb(51, 51, 51);"></circle><circle r="10" class="node" id="1_6" cx="695" cy="483.5" style="fill: rgb(255, 255, 255); stroke: rgb(51, 51, 51);"></circle><circle r="10" class="node" id="1_7" cx="695" cy="523.5" style="fill: rgb(255, 255, 255); stroke: rgb(51, 51, 51);"></circle><circle r="10" class="node" id="1_8" cx="695" cy="563.5" style="fill: rgb(255, 255, 255); stroke: rgb(51, 51, 51);"></circle><circle r="10" class="node" id="1_9" cx="695" cy="603.5" style="fill: rgb(255, 255, 255); stroke: rgb(51, 51, 51);"></circle><circle r="10" class="node" id="1_10" cx="695" cy="643.5" style="fill: rgb(255, 255, 255); stroke: rgb(51, 51, 51);"></circle><circle r="10" class="node" id="1_11" cx="695" cy="683.5" style="fill: rgb(255, 255, 255); stroke: rgb(51, 51, 51);"></circle><circle r="10" class="node" id="2_0" cx="875" cy="403.5" style="fill: rgb(255, 255, 255); stroke: rgb(51, 51, 51);"></circle><text class="text" dy=".35em" x="480" y="803.5" style="font-size: 12px;">Input Layer ∈ ℝ¹⁶</text><text class="text" dy=".35em" x="660" y="803.5" style="font-size: 12px;">Hidden Layer ∈ ℝ¹²</text><text class="text" dy=".35em" x="840" y="803.5" style="font-size: 12px;">Output Layer ∈ ℝ⁴</text><circle r="10" class="node" id="2_1" cx="875" cy="443.5" style="fill: rgb(255, 255, 255); stroke: rgb(51, 51, 51);"></circle><circle r="10" class="node" id="2_2" cx="875" cy="483.5" style="fill: rgb(255, 255, 255); stroke: rgb(51, 51, 51);"></circle><circle r="10" class="node" id="2_3" cx="875" cy="523.5" style="fill: rgb(255, 255, 255); stroke: rgb(51, 51, 51);"></circle></g><defs><marker id="arrow" viewBox="0 -5 10 10" markerWidth="7" markerHeight="7" orient="auto" refX="40"><path d="M0,-5L10,0L0,5" style="stroke: rgb(80, 80, 80); fill: rgb(80, 80, 80);"></path></marker></defs></svg>